<mxfile host="app.diagrams.net" modified="2023-01-31T10:50:13.006Z" agent="5.0 (Windows NT 10.0; Win64; x64) AppleWebKit/537.36 (KHTML, like Gecko) Chrome/109.0.0.0 Safari/537.36" version="20.7.3" etag="xEN00UbLhXGk-RO27Qc1" type="github">
  <diagram id="rtK3o134jwyXbx7Rjypo" name="Page-1">
    <mxGraphModel dx="828" dy="1146" grid="1" gridSize="10" guides="1" tooltips="1" connect="1" arrows="1" fold="1" page="1" pageScale="1" pageWidth="827" pageHeight="1169" math="0" shadow="0">
      <root>
        <mxCell id="0" />
        <mxCell id="1" parent="0" />
        <mxCell id="VaLY5BpykQz9xLPlJ8-R-1" value="&amp;lt;&amp;lt;Board&amp;gt;&amp;gt;" style="rounded=1;whiteSpace=wrap;html=1;" vertex="1" parent="1">
          <mxGeometry x="310" y="320" width="120" height="60" as="geometry" />
        </mxCell>
        <mxCell id="VaLY5BpykQz9xLPlJ8-R-2" value="&amp;lt;&amp;lt;Figures&amp;gt;&amp;gt;" style="rounded=1;whiteSpace=wrap;html=1;" vertex="1" parent="1">
          <mxGeometry x="490" y="320" width="120" height="60" as="geometry" />
        </mxCell>
        <mxCell id="VaLY5BpykQz9xLPlJ8-R-30" style="edgeStyle=orthogonalEdgeStyle;rounded=0;orthogonalLoop=1;jettySize=auto;html=1;exitX=0.5;exitY=0;exitDx=0;exitDy=0;entryX=0.5;entryY=1;entryDx=0;entryDy=0;" edge="1" parent="1" source="VaLY5BpykQz9xLPlJ8-R-7" target="VaLY5BpykQz9xLPlJ8-R-4">
          <mxGeometry relative="1" as="geometry" />
        </mxCell>
        <mxCell id="VaLY5BpykQz9xLPlJ8-R-4" value="&amp;lt;&amp;lt;ValidateInput&amp;gt;&amp;gt;" style="rounded=1;whiteSpace=wrap;html=1;" vertex="1" parent="1">
          <mxGeometry x="150" y="320" width="120" height="60" as="geometry" />
        </mxCell>
        <mxCell id="VaLY5BpykQz9xLPlJ8-R-29" style="edgeStyle=orthogonalEdgeStyle;rounded=0;orthogonalLoop=1;jettySize=auto;html=1;exitX=0;exitY=0.5;exitDx=0;exitDy=0;entryX=1;entryY=0.5;entryDx=0;entryDy=0;" edge="1" parent="1" source="VaLY5BpykQz9xLPlJ8-R-20" target="VaLY5BpykQz9xLPlJ8-R-7">
          <mxGeometry relative="1" as="geometry" />
        </mxCell>
        <mxCell id="VaLY5BpykQz9xLPlJ8-R-7" value="&amp;lt;&amp;lt;Input&amp;gt;&amp;gt;" style="rounded=1;whiteSpace=wrap;html=1;" vertex="1" parent="1">
          <mxGeometry x="150" y="470" width="120" height="60" as="geometry" />
        </mxCell>
        <mxCell id="VaLY5BpykQz9xLPlJ8-R-32" style="edgeStyle=orthogonalEdgeStyle;rounded=0;orthogonalLoop=1;jettySize=auto;html=1;exitX=0.5;exitY=1;exitDx=0;exitDy=0;entryX=0.5;entryY=0;entryDx=0;entryDy=0;" edge="1" parent="1" source="VaLY5BpykQz9xLPlJ8-R-17" target="VaLY5BpykQz9xLPlJ8-R-23">
          <mxGeometry relative="1" as="geometry" />
        </mxCell>
        <mxCell id="VaLY5BpykQz9xLPlJ8-R-17" value="&amp;lt;&amp;lt;Rules&amp;gt;&amp;gt;" style="rounded=1;whiteSpace=wrap;html=1;" vertex="1" parent="1">
          <mxGeometry x="340" y="600" width="120" height="60" as="geometry" />
        </mxCell>
        <mxCell id="VaLY5BpykQz9xLPlJ8-R-19" value="&amp;lt;&amp;lt;Output&amp;gt;&amp;gt;" style="rounded=1;whiteSpace=wrap;html=1;" vertex="1" parent="1">
          <mxGeometry x="550" y="470" width="120" height="60" as="geometry" />
        </mxCell>
        <mxCell id="VaLY5BpykQz9xLPlJ8-R-27" style="edgeStyle=orthogonalEdgeStyle;rounded=0;orthogonalLoop=1;jettySize=auto;html=1;exitX=0.5;exitY=1;exitDx=0;exitDy=0;" edge="1" parent="1" source="VaLY5BpykQz9xLPlJ8-R-20" target="VaLY5BpykQz9xLPlJ8-R-17">
          <mxGeometry relative="1" as="geometry" />
        </mxCell>
        <mxCell id="VaLY5BpykQz9xLPlJ8-R-31" style="edgeStyle=orthogonalEdgeStyle;rounded=0;orthogonalLoop=1;jettySize=auto;html=1;exitX=1;exitY=0.5;exitDx=0;exitDy=0;entryX=0;entryY=0.5;entryDx=0;entryDy=0;" edge="1" parent="1" source="VaLY5BpykQz9xLPlJ8-R-20" target="VaLY5BpykQz9xLPlJ8-R-19">
          <mxGeometry relative="1" as="geometry" />
        </mxCell>
        <mxCell id="VaLY5BpykQz9xLPlJ8-R-33" style="edgeStyle=orthogonalEdgeStyle;rounded=0;orthogonalLoop=1;jettySize=auto;html=1;exitX=0.75;exitY=0;exitDx=0;exitDy=0;" edge="1" parent="1" source="VaLY5BpykQz9xLPlJ8-R-20" target="VaLY5BpykQz9xLPlJ8-R-2">
          <mxGeometry relative="1" as="geometry" />
        </mxCell>
        <mxCell id="VaLY5BpykQz9xLPlJ8-R-34" style="edgeStyle=orthogonalEdgeStyle;rounded=0;orthogonalLoop=1;jettySize=auto;html=1;exitX=0.25;exitY=0;exitDx=0;exitDy=0;entryX=0.5;entryY=1;entryDx=0;entryDy=0;" edge="1" parent="1" source="VaLY5BpykQz9xLPlJ8-R-20" target="VaLY5BpykQz9xLPlJ8-R-1">
          <mxGeometry relative="1" as="geometry" />
        </mxCell>
        <mxCell id="VaLY5BpykQz9xLPlJ8-R-20" value="Main" style="rounded=1;whiteSpace=wrap;html=1;" vertex="1" parent="1">
          <mxGeometry x="340" y="470" width="120" height="60" as="geometry" />
        </mxCell>
        <mxCell id="VaLY5BpykQz9xLPlJ8-R-23" value="&amp;lt;&amp;lt;Rotation&amp;gt;&amp;gt;" style="rounded=1;whiteSpace=wrap;html=1;" vertex="1" parent="1">
          <mxGeometry x="340" y="720" width="120" height="60" as="geometry" />
        </mxCell>
      </root>
    </mxGraphModel>
  </diagram>
</mxfile>
